<svg width="286" height="54" viewBox="0 0 286 54" fill="none" xmlns="http://www.w3.org/2000/svg">
<path d="M5.16876 34.3448V26.2511H0V19.463L15.4562 8.23728H17.8569V16.7484H25.5333V26.2511H17.8569V30.6887C17.8569 33.3498 19.5264 34.8123 21.9305 34.8123C22.9222 34.8123 24.5416 34.3415 25.1693 33.9776V44.9962C24.0207 45.3101 21.463 45.467 20.4179 45.467C11.9603 45.467 5.17209 43.0663 5.17209 34.3448H5.16876Z" fill="white"/>
<path d="M40.2549 16.7484H27.5166V44.6824H40.2549V16.7484Z" fill="white"/>
<path d="M42.5555 30.6352C42.5555 22.5415 49.397 15.9637 59.7846 15.9637C62.97 15.9637 67.5645 16.7985 70.1222 18.6783L67.7715 28.1276C65.8916 26.7687 64.2222 26.0408 61.2972 26.0408C57.9048 26.0408 55.5541 27.9741 55.5541 30.5317C55.5541 33.5068 58.1118 35.3365 61.8181 35.3365C64.7931 35.3365 68.6597 34.2413 70.4861 32.9859V43.4803C68.2924 44.472 63.9083 45.4637 60.3055 45.4637C50.1249 45.4637 42.5521 39.2498 42.5521 30.6352H42.5555Z" fill="white"/>
<path d="M73.0471 3.95671H85.7352V24.3713H86.206L92.2629 16.7484H106.778L97.1713 28.495L107.98 44.6824H93.1511L88.1894 36.4852H87.7186L85.7352 38.7824V44.6824H73.0471V3.95671Z" fill="white"/>
<path d="M112.417 34.3448V26.2511H107.248V19.463L122.705 8.23728H125.105V16.7484H132.782V26.2511H125.105V30.6887C125.105 33.3498 126.775 34.8123 129.179 34.8123C130.171 34.8123 131.79 34.3415 132.418 33.9776V44.9962C131.269 45.3101 128.711 45.467 127.666 45.467C119.209 45.467 112.421 43.0663 112.421 34.3448H112.417Z" fill="#B5FF5F" stroke="#154617" stroke-width="0.333899" stroke-miterlimit="10"/>
<path d="M134.451 30.7421C134.451 22.6484 140.561 15.967 150.899 15.967C161.237 15.967 167.24 22.5449 167.24 30.6386C167.24 38.7323 161.183 45.467 150.792 45.467C140.401 45.467 134.451 38.8358 134.451 30.7421ZM155.754 30.7421C155.754 27.9741 153.717 25.5733 150.792 25.5733C147.867 25.5733 145.937 27.924 145.937 30.692C145.937 33.46 147.921 35.8608 150.846 35.8608C153.771 35.8608 155.754 33.46 155.754 30.7454V30.7421Z" fill="#B5FF5F" stroke="#154617" stroke-width="0.333899" stroke-miterlimit="10"/>
<path d="M169.12 30.6352C169.12 22.5415 175.961 15.9637 186.349 15.9637C189.534 15.9637 194.129 16.7985 196.687 18.6783L194.336 28.1276C192.456 26.7687 190.787 26.0408 187.862 26.0408C184.469 26.0408 182.119 27.9741 182.119 30.5317C182.119 33.5068 184.676 35.3365 188.383 35.3365C191.358 35.3365 195.224 34.2413 197.051 32.9859V43.4803C194.857 44.472 190.473 45.4637 186.87 45.4637C176.689 45.4637 169.117 39.2498 169.117 30.6352H169.12Z" fill="#B5FF5F" stroke="#154617" stroke-width="0.333899" stroke-miterlimit="10"/>
<path d="M199.612 3.95671H212.3V24.3713H212.77L218.827 16.7484H233.342L223.736 28.495L234.544 44.6824H219.716L214.754 36.4852H214.283L212.3 38.7824V44.6824H199.612V3.95671Z" fill="#B5FF5F" stroke="#154617" stroke-width="0.333899" stroke-miterlimit="10"/>
<path d="M240.477 25.3496H242.134V34.5051H240.477V25.3496Z" fill="white"/>
<path d="M243.442 30.9124C243.442 28.7186 245.125 27.156 247.456 27.156C249.787 27.156 251.456 28.7186 251.456 30.9124C251.456 33.1061 249.773 34.6821 247.456 34.6821C245.139 34.6821 243.442 33.1061 243.442 30.9124ZM249.797 30.9124C249.797 29.5 248.758 28.5417 247.453 28.5417C246.147 28.5417 245.095 29.4966 245.095 30.9124C245.095 32.3281 246.147 33.2964 247.453 33.2964C248.758 33.2964 249.797 32.3281 249.797 30.9124Z" fill="white"/>
<path d="M252.464 30.9124C252.464 28.7454 254 27.156 256.02 27.156C257.326 27.156 258.458 27.8171 259.036 28.9056H259.116L260.181 27.3163H260.505V34.5085H258.712C258.765 34.0777 258.805 33.6737 258.832 33.243H258.752C258.131 34.1178 257.109 34.6854 255.87 34.6854C253.93 34.6854 252.464 33.1495 252.464 30.9157V30.9124ZM258.902 30.899C258.902 29.4866 257.854 28.5016 256.531 28.5016C255.209 28.5016 254.147 29.4833 254.147 30.899C254.147 32.3147 255.199 33.2964 256.531 33.2964C257.864 33.2964 258.902 32.3147 258.902 30.899Z" fill="white"/>
<path d="M262.134 27.3163H262.471L263.466 28.7454H263.533C264.084 27.7203 265.136 27.156 266.308 27.156C268.084 27.156 269.513 28.4348 269.513 30.3748V34.5085H267.857V30.7254C267.857 29.4465 266.969 28.5584 265.824 28.5584C264.678 28.5584 263.79 29.4332 263.79 30.7254V34.5085H262.134V27.3163Z" fill="white"/>
<path d="M270.729 33.874L270.849 32.5151C271.59 33.0527 272.639 33.43 273.664 33.43C274.876 33.43 275.387 33.1061 275.387 32.5551C275.387 31.9341 274.822 31.6403 273.3 31.3297C271.737 31.0059 270.916 30.3214 270.916 29.1894C270.916 28.0575 272.034 27.156 273.944 27.156C275.036 27.156 275.897 27.3296 276.625 27.5867V28.8522C276.031 28.5818 275.116 28.3814 274.281 28.3814C273.096 28.3814 272.532 28.7186 272.532 29.2295C272.532 29.7671 273.069 30.0643 274.605 30.4015C276.261 30.7521 277.016 31.3564 277.016 32.5284C277.016 33.7672 275.871 34.6821 273.971 34.6821C272.852 34.6821 271.507 34.3181 270.725 33.874H270.729Z" fill="white"/>
<path d="M236.467 20.5916L229.933 28.5283L237.172 40.0345H275.66C281.029 40.0345 285.384 35.6805 285.384 30.3114C285.384 24.9423 281.029 20.5882 275.66 20.5882H236.471L236.467 20.5916Z" stroke="white" stroke-width="0.400679" stroke-miterlimit="10"/>
<path d="M33.607 15.0255C37.7561 15.0255 41.1197 11.6619 41.1197 7.51273C41.1197 3.36356 37.7561 0 33.607 0C29.4578 0 26.0942 3.36356 26.0942 7.51273C26.0942 11.6619 29.4578 15.0255 33.607 15.0255Z" fill="#B5FF5F"/>
<path d="M199.755 48.3285H201.228V50.362H202.977V48.3285H204.443V53.5407H202.977V51.5239H201.228V53.5407H199.755V48.3285Z" fill="#B5FF5F"/>
<path d="M205.061 51.5507C205.061 50.382 205.946 49.4504 207.345 49.4504C208.744 49.4504 209.615 50.3653 209.615 51.534C209.615 52.7026 208.737 53.6409 207.338 53.6409C205.939 53.6409 205.061 52.7193 205.061 51.5507ZM208.283 51.5507C208.283 50.9997 207.882 50.5757 207.338 50.5757C206.794 50.5757 206.393 50.9997 206.393 51.544C206.393 52.0882 206.794 52.5256 207.338 52.5256C207.882 52.5256 208.283 52.0949 208.283 51.5507Z" fill="#B5FF5F"/>
<path d="M210.136 49.5573H210.3L211.104 50.2117H211.134C211.425 49.7576 211.922 49.4538 212.557 49.4538C213.228 49.4538 213.695 49.7576 213.949 50.2284H213.993C214.253 49.7676 214.737 49.4538 215.378 49.4538C216.413 49.4538 217.054 50.1917 217.054 51.1733V53.5407H215.595V51.2268C215.595 50.7894 215.342 50.5189 214.954 50.5189C214.567 50.5189 214.33 50.786 214.323 51.2769V53.5407H212.864V51.2268C212.864 50.7793 212.634 50.5189 212.23 50.5189C211.859 50.5189 211.605 50.786 211.599 51.2635V53.5407H210.139V49.5573H210.136Z" fill="#B5FF5F"/>
<path d="M217.539 51.5373C217.539 50.3686 218.44 49.4538 219.719 49.4538C220.998 49.4538 221.839 50.3853 221.839 51.4939C221.839 51.5907 221.809 51.8211 221.786 51.9113H218.861C218.964 52.3119 219.328 52.6024 219.993 52.6024C220.454 52.6024 220.858 52.5056 221.245 52.2886L221.415 53.317C221.035 53.5106 220.477 53.6442 219.876 53.6442C218.246 53.6442 217.539 52.559 217.539 51.5373ZM220.607 51.3136C220.62 50.9129 220.257 50.5089 219.742 50.5089C219.228 50.5089 218.894 50.8127 218.821 51.3136H220.607Z" fill="#B5FF5F"/>
<path d="M271.937 50.9263C271.937 49.3937 273.023 48.225 274.849 48.225C275.28 48.225 275.974 48.3586 276.315 48.5389L276.091 49.8645C275.854 49.6775 275.353 49.5139 274.929 49.5139C274.074 49.5139 273.403 50.0882 273.403 50.8829C273.403 51.6775 273.998 52.3053 275.099 52.3053C275.637 52.3053 276.135 52.1483 276.515 51.8879V53.3337C276.145 53.5207 275.473 53.6475 275.003 53.6475C273.046 53.6475 271.937 52.4488 271.937 50.9296V50.9263Z" fill="#B5FF5F"/>
<path d="M276.819 51.5507C276.819 50.382 277.66 49.4504 278.852 49.4504C279.59 49.4504 280.191 49.7843 280.542 50.3152H280.572L281.464 49.5573H281.627V53.5407H280.161V52.4021H280.101C279.951 53.1033 279.393 53.6442 278.589 53.6442C277.517 53.6442 276.816 52.7961 276.816 51.554L276.819 51.5507ZM280.245 51.5306C280.245 50.9797 279.851 50.5556 279.307 50.5556C278.762 50.5556 278.355 50.9864 278.355 51.5373C278.355 52.0882 278.756 52.5123 279.3 52.5123C279.844 52.5123 280.245 52.0715 280.245 51.5306Z" fill="#B5FF5F"/>
<path d="M282.282 49.5573H282.445L283.28 50.2418H283.293C283.57 49.7743 284.105 49.4538 284.759 49.4538C285.026 49.4538 285.267 49.4905 285.48 49.574L285.467 50.796C285.317 50.6758 285.103 50.6024 284.813 50.6024C284.232 50.6024 283.747 51.0331 283.741 51.7944V53.544H282.282V49.5606V49.5573Z" fill="#B5FF5F"/>
<path d="M230.821 48.3285H233.375C234.35 48.3285 235.042 48.796 235.042 49.5706C235.042 50.0681 234.758 50.4354 234.32 50.6424V50.7092C235.028 50.9029 235.489 51.387 235.489 52.0582C235.489 53.0098 234.618 53.5407 233.509 53.5407H230.821V48.3285ZM233.105 50.4421C233.432 50.4421 233.656 50.2418 233.656 49.958C233.656 49.6741 233.432 49.4905 233.105 49.4905H232.294V50.4421H233.105ZM233.232 52.332C233.619 52.332 233.88 52.1016 233.88 51.781C233.88 51.4605 233.619 51.2435 233.225 51.2435H232.294V52.3286H233.232V52.332Z" fill="#B5FF5F"/>
<path d="M235.983 52.0348V49.5573H237.449V51.7911C237.449 52.342 237.8 52.6859 238.267 52.6859C238.734 52.6859 239.065 52.322 239.065 51.741V49.5606H240.531V53.544H239.065V52.6592H239.005C238.835 53.2335 238.344 53.6509 237.583 53.6509C236.601 53.6509 235.983 52.9664 235.983 52.0415V52.0348Z" fill="#B5FF5F"/>
<path d="M240.912 53.1801L241.202 52.145C241.596 52.4288 242.214 52.6225 242.661 52.6225C243.109 52.6225 243.292 52.5123 243.292 52.332C243.292 52.1517 243.165 52.0415 242.564 51.9213C241.686 51.751 241.209 51.3269 241.209 50.6692C241.209 49.978 241.813 49.4471 242.905 49.4471C243.649 49.4471 244.037 49.5573 244.371 49.7008V50.6825C244.14 50.5423 243.626 50.4221 243.276 50.4221C242.888 50.4221 242.671 50.5256 242.671 50.7126C242.671 50.8995 242.821 51.0031 243.386 51.1132C244.361 51.2835 244.771 51.7009 244.771 52.3487C244.771 53.1066 244.16 53.6375 243.028 53.6375C242.217 53.6375 241.479 53.4739 240.908 53.1767L240.912 53.1801Z" fill="#B5FF5F"/>
<path d="M245.135 48.4621C245.135 48.0514 245.469 47.7175 245.917 47.7175C246.364 47.7175 246.698 48.0514 246.698 48.4621C246.698 48.8728 246.364 49.2067 245.917 49.2067C245.469 49.2067 245.135 48.8728 245.135 48.4621ZM245.182 49.5573H246.648V53.5407H245.182V49.5573Z" fill="#B5FF5F"/>
<path d="M247.249 49.5573H247.419L248.274 50.2718H248.287C248.631 49.781 249.209 49.4538 249.88 49.4538C250.965 49.4538 251.793 50.2217 251.793 51.2401V53.5407H250.327V51.4104C250.327 50.8595 249.97 50.5189 249.509 50.5189C249.049 50.5189 248.715 50.8762 248.715 51.4572V53.5407H247.249V49.5573Z" fill="#B5FF5F"/>
<path d="M252.287 51.5373C252.287 50.3686 253.189 49.4538 254.468 49.4538C255.747 49.4538 256.588 50.3853 256.588 51.4939C256.588 51.5907 256.558 51.8211 256.535 51.9113H253.61C253.713 52.3119 254.077 52.6024 254.742 52.6024C255.202 52.6024 255.606 52.5056 255.994 52.2886L256.164 53.317C255.783 53.5106 255.226 53.6442 254.625 53.6442C252.995 53.6442 252.287 52.559 252.287 51.5373ZM255.356 51.3136C255.369 50.9129 255.005 50.5089 254.491 50.5089C253.977 50.5089 253.643 50.8127 253.57 51.3136H255.356Z" fill="#B5FF5F"/>
<path d="M256.678 53.1801L256.969 52.145C257.363 52.4288 257.98 52.6225 258.428 52.6225C258.875 52.6225 259.059 52.5123 259.059 52.332C259.059 52.1517 258.932 52.0415 258.331 51.9213C257.453 51.751 256.975 51.3269 256.975 50.6692C256.975 49.978 257.58 49.4471 258.672 49.4471C259.416 49.4471 259.804 49.5573 260.137 49.7008V50.6825C259.907 50.5423 259.393 50.4221 259.042 50.4221C258.655 50.4221 258.438 50.5256 258.438 50.7126C258.438 50.8995 258.588 51.0031 259.152 51.1132C260.127 51.2835 260.538 51.7009 260.538 52.3487C260.538 53.1066 259.927 53.6375 258.795 53.6375C257.984 53.6375 257.246 53.4739 256.675 53.1767L256.678 53.1801Z" fill="#B5FF5F"/>
<path d="M260.755 53.1801L261.046 52.145C261.44 52.4288 262.057 52.6225 262.505 52.6225C262.952 52.6225 263.136 52.5123 263.136 52.332C263.136 52.1517 263.009 52.0415 262.408 51.9213C261.53 51.751 261.052 51.3269 261.052 50.6692C261.052 49.978 261.657 49.4471 262.749 49.4471C263.493 49.4471 263.88 49.5573 264.214 49.7008V50.6825C263.984 50.5423 263.47 50.4221 263.119 50.4221C262.732 50.4221 262.515 50.5256 262.515 50.7126C262.515 50.8995 262.665 51.0031 263.229 51.1132C264.204 51.2835 264.615 51.7009 264.615 52.3487C264.615 53.1066 264.004 53.6375 262.872 53.6375C262.061 53.6375 261.323 53.4739 260.752 53.1767L260.755 53.1801Z" fill="#B5FF5F"/>
<path d="M226.036 52.3687C226.566 52.3687 226.995 51.9397 226.995 51.4104C226.995 50.8812 226.566 50.4521 226.036 50.4521C225.507 50.4521 225.078 50.8812 225.078 51.4104C225.078 51.9397 225.507 52.3687 226.036 52.3687Z" fill="white"/>
<path d="M268.171 52.3687C268.7 52.3687 269.129 51.9397 269.129 51.4104C269.129 50.8812 268.7 50.4521 268.171 50.4521C267.642 50.4521 267.213 50.8812 267.213 51.4104C267.213 51.9397 267.642 52.3687 268.171 52.3687Z" fill="white"/>
</svg>
